<svg width="17" height="16" viewBox="0 0 17 16" fill="none" xmlns="http://www.w3.org/2000/svg">
<path d="M11.9114 0H4.80433C2.15096 0 0 2.02444 0 4.52172V11.4783C0 13.9756 2.15096 16 4.80433 16H11.9114C14.5648 16 16.7157 13.9756 16.7157 11.4783V4.52172C16.7157 2.02444 14.5647 0 11.9114 0ZM1.70568 4.52172C1.70568 2.91356 3.09566 1.60534 4.80433 1.60534H11.9114C13.62 1.60534 15.01 2.91356 15.01 4.52172V11.4783C15.01 13.0864 13.62 14.3947 11.9114 14.3947H4.80433C3.09566 14.3947 1.70568 13.0864 1.70568 11.4783V4.52172Z" fill="#FBFBFB"/>
<path d="M8.35786 12.1203C10.7718 12.1203 12.7358 10.272 12.7358 7.99999C12.7358 5.72802 10.7718 3.87952 8.35786 3.87952C5.94393 3.87952 3.98 5.72802 3.98 7.99999C3.98 10.272 5.94389 12.1203 8.35786 12.1203ZM8.35786 5.1638C10.0194 5.1638 11.3712 6.43611 11.3712 7.99999C11.3712 9.56386 10.0194 10.8362 8.35786 10.8362C6.69631 10.8362 5.34454 9.56386 5.34454 7.99999C5.34454 6.43611 6.69628 5.1638 8.35786 5.1638Z" fill="#FBFBFB"/>
<path d="M12.8638 4.68243C13.4054 4.68243 13.8445 4.26912 13.8445 3.75928C13.8445 3.24943 13.4054 2.83612 12.8638 2.83612C12.3221 2.83612 11.883 3.24943 11.883 3.75928C11.883 4.26912 12.3221 4.68243 12.8638 4.68243Z" fill="#FBFBFB"/>
</svg>
